# xmcd
#
# Track frame offsets: 
#        183
#        19140
#        42448
#        57035
#        70875
#        78950
#        94383
#        106310
#        119153
#        133333
#        160948
#        207013
#        237473
#        248603
#        261583
#        275508
#        293568
#        312225
#
# Disc length: 4332 seconds
#
# Revision: 2
# Processed by: cddbd v1.5.2PL0 Copyright (c) Steve Scherf et al.
# Submitted via: ExactAudioCopy v0.99pb4
#
DISCID=0d10ea12
DTITLE=Various Artist - Le Top Du Blues [CD2]
DYEAR=2003
DGENRE=
TTITLE0=Memphis Slim - Two Of A Kind
TTITLE1=Skip James - Devil Got My Woman
TTITLE2=J.B. Lenoir - I've Been Down So Long
TTITLE3=Little Walter - Blues With A Feeling
TTITLE4=Mississippi John Hurt - Corinna Corinna
TTITLE5=John Lee Hooker - The Night Time Is The Right Time
TTITLE6=Jimmy Reed - Bright Lights Big City
TTITLE7=Muddy Waters - Hoochie Coochie Man
TTITLE8=J.B. Hutto and His Hawks - Married Woman Blues
TTITLE9=Buddy Guy - I Had A Dream Last Night
TTITLE10=Albert King - Blues Power
TTITLE11=The Yardbirds - Smokestack Lightning
TTITLE12=Eric Clapton - Snake Drive
TTITLE13=John Mayall and The Bluesbreakers - Supernatural
TTITLE14=Tony McPhee - Ain't Gonna Cry No More
TTITLE15=Savoy Brown Blues Band - True Blue
TTITLE16=John Hammond - They Call It Stormy Monday
TTITLE17=Jaques Higelin - Ballast Blues
EXTD=
EXTT0=
EXTT1=
EXTT2=
EXTT3=
EXTT4=
EXTT5=
EXTT6=
EXTT7=
EXTT8=
EXTT9=
EXTT10=
EXTT11=
EXTT12=
EXTT13=
EXTT14=
EXTT15=
EXTT16=
EXTT17=
PLAYORDER=
